<svg width="398" height="359" viewBox="0 0 398 359" fill="none" xmlns="http://www.w3.org/2000/svg">
<path d="M387.009 0C394.707 0 399.518 8.33431 395.668 15.001L336.184 118H387.009C394.707 118 399.518 126.334 395.668 133.001L316.596 269.916C302.304 294.663 275.897 309.906 247.319 309.906H135.04C130.954 309.906 126.897 310.583 123.032 311.909C114.584 314.809 107.47 320.667 103.004 328.402L102.54 329.207C91.9632 347.527 72.4156 358.812 51.2617 358.812H0L32.5352 302.46C48.0257 275.629 72.3901 255.043 101.43 244.248C116.27 238.731 131.976 235.906 147.809 235.906H237.998C243.17 234.426 247.999 231.829 252.117 228.241C255.198 225.558 257.814 222.382 259.856 218.844L275.354 192H135.04C130.954 192 126.897 192.677 123.032 194.003C114.584 196.902 107.47 202.761 103.004 210.496L102.54 211.301C91.9632 229.621 72.4156 240.906 51.2617 240.906H0L0.0537109 240.812H0L32.5352 184.46C48.0257 157.629 72.3901 137.043 101.43 126.248C116.27 120.731 131.976 117.906 147.809 117.906H237.998C243.17 116.426 247.999 113.829 252.117 110.241C255.198 107.558 257.814 104.382 259.856 100.844L275.354 74H135.04C130.954 74 126.897 74.6767 123.032 76.0029C114.584 78.9024 107.47 84.7608 103.004 92.4961L102.54 93.3008C91.9632 111.621 72.4156 122.906 51.2617 122.906H0L32.5352 66.5537C48.0257 39.7232 72.3901 19.1368 101.43 8.3418C116.27 2.82508 131.976 4.17425e-05 147.809 0H387.009Z" fill="#FE6A0A"/>
</svg>
