<svg width="2028" height="359" viewBox="0 0 2028 359" fill="none" xmlns="http://www.w3.org/2000/svg">
<path d="M387.009 0C394.707 0 399.518 8.33431 395.668 15.001L336.184 118H387.009C394.707 118 399.518 126.334 395.668 133.001L316.596 269.916C302.304 294.663 275.897 309.906 247.319 309.906H135.04C130.954 309.906 126.897 310.583 123.032 311.909C114.584 314.809 107.47 320.667 103.004 328.402L102.54 329.207C91.9632 347.527 72.4156 358.812 51.2617 358.812H0L32.5352 302.46C48.0257 275.629 72.3901 255.043 101.43 244.248C116.27 238.731 131.976 235.906 147.809 235.906H237.998C243.17 234.426 247.999 231.829 252.117 228.241C255.198 225.558 257.814 222.382 259.856 218.844L275.354 192H135.04C130.954 192 126.897 192.677 123.032 194.003C114.584 196.902 107.47 202.761 103.004 210.496L102.54 211.301C91.9632 229.621 72.4156 240.906 51.2617 240.906H0L0.0537109 240.812H0L32.5352 184.46C48.0257 157.629 72.3901 137.043 101.43 126.248C116.27 120.731 131.976 117.906 147.809 117.906H237.998C243.17 116.426 247.999 113.829 252.117 110.241C255.198 107.558 257.814 104.382 259.856 100.844L275.354 74H135.04C130.954 74 126.897 74.6767 123.032 76.0029C114.584 78.9024 107.47 84.7608 103.004 92.4961L102.54 93.3008C91.9632 111.621 72.4156 122.906 51.2617 122.906H0L32.5352 66.5537C48.0257 39.7232 72.3901 19.1368 101.43 8.3418C116.27 2.82508 131.976 4.17425e-05 147.809 0H387.009Z" fill="#FE6A0A"/>
<path d="M483.023 309.939V48.8735H626.966L670.597 171.201L714.227 48.8735H858.17V309.939H757.484V173.812L709.006 309.939H632.187L583.709 173.812V309.939H483.023Z" fill="white"/>
<path d="M887.979 309.939V48.8735H1133.35V124.21H992.394V147.332H1093.08V211.48H992.394V234.603H1133.35V309.939H887.979Z" fill="white"/>
<path d="M1158.19 309.939V48.8735H1358.44C1385.79 48.8735 1406.3 55.0893 1419.97 67.521C1433.9 79.7041 1440.86 95.9896 1440.86 116.378C1440.86 126.572 1438.74 136.268 1434.52 145.468C1430.29 154.419 1423.21 162.126 1413.26 168.591C1403.57 175.055 1390.27 179.531 1373.36 182.017V189.476C1390.27 191.962 1403.57 195.567 1413.26 200.291C1423.21 205.016 1430.29 211.48 1434.52 219.685C1438.74 227.89 1440.86 238.581 1440.86 251.759V309.939H1334.21V262.574C1334.21 245.17 1325.5 236.468 1308.1 236.468H1264.84V309.939H1158.19ZM1264.84 161.132H1319.66C1324.39 161.132 1328.11 159.64 1330.85 156.656C1333.58 153.424 1334.95 149.446 1334.95 144.722C1334.95 139.749 1333.58 135.771 1330.85 132.787C1328.11 129.804 1324.39 128.312 1319.66 128.312H1264.84V161.132Z" fill="white"/>
<path d="M1578.66 315.906C1563.5 315.906 1548.46 313.296 1533.54 308.074C1518.88 302.604 1505.45 294.648 1493.27 284.205C1481.09 273.763 1471.39 260.71 1464.18 245.046C1456.97 229.382 1453.37 211.231 1453.37 190.595V167.845C1453.37 141.987 1459.83 119.734 1472.76 101.087C1485.93 82.439 1504.08 68.1426 1527.2 58.1972C1550.32 48.0032 1576.8 42.9062 1606.63 42.9062C1630 42.9062 1651.88 46.2628 1672.26 52.9759C1692.65 59.689 1710.05 70.0073 1724.47 83.9308C1738.89 97.6057 1748.71 115.259 1753.93 136.89L1648.77 156.656C1646.29 145.965 1640.82 138.257 1632.36 133.533C1623.91 128.809 1615.09 126.447 1605.89 126.447C1594.2 126.447 1584.13 130.052 1575.68 137.263C1567.23 144.225 1563 154.419 1563 167.845V190.595C1563 204.767 1567.6 216.204 1576.8 224.906C1586.25 233.36 1598.18 237.587 1612.6 237.587C1623.29 237.587 1632.86 235.225 1641.31 230.501C1649.77 225.776 1655.36 219.188 1658.09 210.734H1603.28V168.218H1755.42V309.939H1667.42L1670.77 266.677H1664.06C1660.58 277.617 1654.37 286.816 1645.42 294.275C1636.71 301.485 1626.52 306.831 1614.84 310.312C1603.15 314.042 1591.09 315.906 1578.66 315.906Z" fill="white"/>
<path d="M1781.65 309.939V48.8735H2027.02V124.21H1886.06V147.332H1986.75V211.48H1886.06V234.603H2027.02V309.939H1781.65Z" fill="white"/>
</svg>
