<svg width="2028" height="456" viewBox="0 0 2028 456" fill="none" xmlns="http://www.w3.org/2000/svg">
<path d="M387.009 0C394.707 0 399.518 8.33431 395.668 15.001L336.184 118H387.009C394.707 118 399.518 126.334 395.668 133.001L316.596 269.916C302.304 294.663 275.897 309.906 247.319 309.906H135.04C130.954 309.906 126.897 310.583 123.032 311.909C114.584 314.809 107.47 320.667 103.004 328.402L102.54 329.207C91.9632 347.527 72.4156 358.812 51.2617 358.812H0L32.5352 302.46C48.0257 275.629 72.3901 255.043 101.43 244.248C116.27 238.731 131.976 235.906 147.809 235.906H237.998C243.17 234.426 247.999 231.829 252.117 228.241C255.198 225.558 257.814 222.382 259.856 218.844L275.354 192H135.04C130.954 192 126.897 192.677 123.032 194.003C114.584 196.902 107.47 202.761 103.004 210.496L102.54 211.301C91.9632 229.621 72.4156 240.906 51.2617 240.906H0L0.0537109 240.812H0L32.5352 184.46C48.0257 157.629 72.3901 137.043 101.43 126.248C116.27 120.731 131.976 117.906 147.809 117.906H237.998C243.17 116.426 247.999 113.829 252.117 110.241C255.198 107.558 257.814 104.382 259.856 100.844L275.354 74H135.04C130.954 74 126.897 74.6767 123.032 76.0029C114.584 78.9024 107.47 84.7608 103.004 92.4961L102.54 93.3008C91.9632 111.621 72.4156 122.906 51.2617 122.906H0L32.5352 66.5537C48.0257 39.7232 72.3901 19.1368 101.43 8.3418C116.27 2.82508 131.976 4.17425e-05 147.809 0H387.009Z" fill="#FE6A0A"/>
<path d="M483.023 309.939V48.8735H626.966L670.597 171.201L714.227 48.8735H858.17V309.939H757.484V173.812L709.006 309.939H632.187L583.709 173.812V309.939H483.023Z" fill="white"/>
<path d="M887.979 309.939V48.8735H1133.35V124.21H992.394V147.332H1093.08V211.48H992.394V234.603H1133.35V309.939H887.979Z" fill="white"/>
<path d="M1158.19 309.939V48.8735H1358.44C1385.79 48.8735 1406.3 55.0893 1419.97 67.521C1433.9 79.7041 1440.86 95.9896 1440.86 116.378C1440.86 126.572 1438.74 136.268 1434.52 145.468C1430.29 154.419 1423.21 162.126 1413.26 168.591C1403.57 175.055 1390.27 179.531 1373.36 182.017V189.476C1390.27 191.962 1403.57 195.567 1413.26 200.291C1423.21 205.016 1430.29 211.48 1434.52 219.685C1438.74 227.89 1440.86 238.581 1440.86 251.759V309.939H1334.21V262.574C1334.21 245.17 1325.5 236.468 1308.1 236.468H1264.84V309.939H1158.19ZM1264.84 161.132H1319.66C1324.39 161.132 1328.11 159.64 1330.85 156.656C1333.58 153.424 1334.95 149.446 1334.95 144.722C1334.95 139.749 1333.58 135.771 1330.85 132.787C1328.11 129.804 1324.39 128.312 1319.66 128.312H1264.84V161.132Z" fill="white"/>
<path d="M1578.66 315.906C1563.5 315.906 1548.46 313.296 1533.54 308.074C1518.88 302.604 1505.45 294.648 1493.27 284.205C1481.09 273.763 1471.39 260.71 1464.18 245.046C1456.97 229.382 1453.37 211.231 1453.37 190.595V167.845C1453.37 141.987 1459.83 119.734 1472.76 101.087C1485.93 82.439 1504.08 68.1426 1527.2 58.1972C1550.32 48.0032 1576.8 42.9062 1606.63 42.9062C1630 42.9062 1651.88 46.2628 1672.26 52.9759C1692.65 59.689 1710.05 70.0073 1724.47 83.9308C1738.89 97.6057 1748.71 115.259 1753.93 136.89L1648.77 156.656C1646.29 145.965 1640.82 138.257 1632.36 133.533C1623.91 128.809 1615.09 126.447 1605.89 126.447C1594.2 126.447 1584.13 130.052 1575.68 137.263C1567.23 144.225 1563 154.419 1563 167.845V190.595C1563 204.767 1567.6 216.204 1576.8 224.906C1586.25 233.36 1598.18 237.587 1612.6 237.587C1623.29 237.587 1632.86 235.225 1641.31 230.501C1649.77 225.776 1655.36 219.188 1658.09 210.734H1603.28V168.218H1755.42V309.939H1667.42L1670.77 266.677H1664.06C1660.58 277.617 1654.37 286.816 1645.42 294.275C1636.71 301.485 1626.52 306.831 1614.84 310.312C1603.15 314.042 1591.09 315.906 1578.66 315.906Z" fill="white"/>
<path d="M1781.65 309.939V48.8735H2027.02V124.21H1886.06V147.332H1986.75V211.48H1886.06V234.603H2027.02V309.939H1781.65Z" fill="white"/>
<path d="M889.64 435.812V379.267H920.821L930.272 405.763L939.723 379.267H970.904V435.812H949.094V406.328L938.592 435.812H921.952L911.45 406.328V435.812H889.64ZM977.361 435.812V379.267H1030.51V395.584H999.979V400.593H1021.79V414.487H999.979V419.495H1030.51V435.812H977.361ZM1035.89 435.812V379.267H1079.27C1085.2 379.267 1089.64 380.613 1092.6 383.306C1095.62 385.945 1097.13 389.472 1097.13 393.888C1097.13 396.096 1096.67 398.196 1095.75 400.189C1094.84 402.127 1093.3 403.797 1091.15 405.197C1089.05 406.597 1086.17 407.567 1082.5 408.105V409.721C1086.17 410.259 1089.05 411.04 1091.15 412.063C1093.3 413.087 1094.84 414.487 1095.75 416.264C1096.67 418.041 1097.13 420.357 1097.13 423.211V435.812H1074.02V425.554C1074.02 421.784 1072.14 419.899 1068.37 419.899H1059V435.812H1035.89ZM1059 403.582H1070.87C1071.9 403.582 1072.7 403.258 1073.3 402.612C1073.89 401.912 1074.18 401.05 1074.18 400.027C1074.18 398.95 1073.89 398.089 1073.3 397.442C1072.7 396.796 1071.9 396.473 1070.87 396.473H1059V403.582ZM1126.98 437.105C1123.69 437.105 1120.43 436.54 1117.2 435.409C1114.03 434.224 1111.12 432.501 1108.48 430.239C1105.84 427.977 1103.74 425.15 1102.18 421.757C1100.62 418.364 1099.84 414.433 1099.84 409.963V405.036C1099.84 399.435 1101.24 394.615 1104.04 390.576C1106.89 386.537 1110.82 383.441 1115.83 381.286C1120.84 379.078 1126.57 377.974 1133.04 377.974C1138.1 377.974 1142.84 378.701 1147.25 380.155C1151.67 381.61 1155.44 383.844 1158.56 386.86C1161.69 389.822 1163.81 393.646 1164.94 398.331L1142.16 402.612C1141.63 400.296 1140.44 398.627 1138.61 397.604C1136.78 396.581 1134.87 396.069 1132.87 396.069C1130.34 396.069 1128.16 396.85 1126.33 398.412C1124.5 399.92 1123.58 402.127 1123.58 405.036V409.963C1123.58 413.033 1124.58 415.51 1126.57 417.395C1128.62 419.226 1131.2 420.141 1134.33 420.141C1136.64 420.141 1138.72 419.63 1140.55 418.606C1142.38 417.583 1143.59 416.156 1144.18 414.325H1132.31V405.116H1165.27V435.812H1146.2L1146.93 426.442H1145.48C1144.72 428.812 1143.38 430.804 1141.44 432.42C1139.55 433.981 1137.34 435.139 1134.81 435.893C1132.28 436.701 1129.67 437.105 1126.98 437.105ZM1170.95 435.812V379.267H1224.1V395.584H1193.57V400.593H1215.38V414.487H1193.57V419.495H1224.1V435.812H1170.95ZM1258.85 435.812V413.437L1237.03 379.267H1262.64L1269.99 392.838L1277.83 379.267H1303.27L1281.46 413.437V435.812H1258.85ZM1330.33 437.105C1323.87 437.105 1318.13 435.947 1313.12 433.631C1308.11 431.316 1304.18 428.112 1301.33 424.019C1298.53 419.926 1297.13 415.241 1297.13 409.963V405.116C1297.13 399.785 1298.53 395.1 1301.33 391.061C1304.18 386.968 1308.11 383.764 1313.12 381.448C1318.13 379.132 1323.87 377.974 1330.33 377.974C1336.84 377.974 1342.58 379.132 1347.53 381.448C1352.54 383.764 1356.45 386.968 1359.25 391.061C1362.1 395.1 1363.53 399.785 1363.53 405.116V409.963C1363.53 415.241 1362.1 419.926 1359.25 424.019C1356.45 428.112 1352.54 431.316 1347.53 433.631C1342.58 435.947 1336.84 437.105 1330.33 437.105ZM1330.33 418.526C1333.02 418.526 1335.26 417.691 1337.03 416.022C1338.86 414.352 1339.78 412.333 1339.78 409.963V405.116C1339.78 402.747 1338.86 400.727 1337.03 399.058C1335.26 397.388 1333.02 396.554 1330.33 396.554C1327.69 396.554 1325.45 397.388 1323.62 399.058C1321.79 400.727 1320.88 402.747 1320.88 405.116V409.963C1320.88 412.333 1321.79 414.352 1323.62 416.022C1325.45 417.691 1327.69 418.526 1330.33 418.526ZM1398.05 437.105C1388.41 437.105 1380.97 435.005 1375.75 430.804C1370.53 426.55 1367.92 420.518 1367.92 412.71V379.267H1390.53V411.013C1390.53 416.883 1393.04 419.818 1398.05 419.818C1403.05 419.818 1405.56 416.883 1405.56 411.013V379.267H1428.18V412.71C1428.18 420.518 1425.56 426.55 1420.34 430.804C1415.12 435.005 1407.69 437.105 1398.05 437.105ZM1434.19 435.812V379.267H1477.57C1483.49 379.267 1487.94 380.613 1490.9 383.306C1493.91 385.945 1495.42 389.472 1495.42 393.888C1495.42 396.096 1494.96 398.196 1494.05 400.189C1493.13 402.127 1491.6 403.797 1489.44 405.197C1487.34 406.597 1484.46 407.567 1480.8 408.105V409.721C1484.46 410.259 1487.34 411.04 1489.44 412.063C1491.6 413.087 1493.13 414.487 1494.05 416.264C1494.96 418.041 1495.42 420.357 1495.42 423.211V435.812H1472.32V425.554C1472.32 421.784 1470.43 419.899 1466.66 419.899H1457.29V435.812H1434.19ZM1457.29 403.582H1469.17C1470.19 403.582 1471 403.258 1471.59 402.612C1472.18 401.912 1472.48 401.05 1472.48 400.027C1472.48 398.95 1472.18 398.089 1471.59 397.442C1471 396.796 1470.19 396.473 1469.17 396.473H1457.29V403.582ZM2005.31 435.812V416.425H2024.69V435.812H2005.31Z" fill="white"/>
<path d="M1513.94 435.812V379.267H1536.56V417.072H1561.44V435.812H1513.94ZM1565.46 435.812V379.267H1588.08V435.812H1565.46ZM1594.57 435.812V379.267H1645.3V398.008H1617.18V403.824H1636.57V419.333H1617.18V435.812H1594.57ZM1649.39 435.812V379.267H1702.55V395.584H1672.01V400.593H1693.82V414.487H1672.01V419.495H1702.55V435.812H1649.39ZM1739.68 437.105C1734.13 437.105 1729.02 436.486 1724.33 435.247C1719.65 433.955 1715.63 432.124 1712.3 429.754C1709.01 427.385 1706.61 424.584 1705.11 421.353L1725.54 416.022C1727 418.23 1729.02 419.872 1731.6 420.949C1734.24 421.972 1737.15 422.484 1740.33 422.484C1745.33 422.484 1747.84 421.434 1747.84 419.333C1747.84 417.879 1746.68 416.937 1744.36 416.506C1742.1 416.075 1739.3 415.779 1735.96 415.618C1733.49 415.51 1730.87 415.321 1728.13 415.052C1725.44 414.783 1722.8 414.325 1720.21 413.679C1717.63 412.979 1715.28 412.01 1713.18 410.771C1711.08 409.478 1709.39 407.809 1708.1 405.763C1706.86 403.662 1706.24 401.05 1706.24 397.927C1706.24 393.673 1707.45 390.064 1709.87 387.103C1712.3 384.141 1715.72 381.879 1720.13 380.317C1724.6 378.755 1729.88 377.974 1735.96 377.974C1741.3 377.974 1746.22 378.54 1750.75 379.671C1755.32 380.802 1759.26 382.444 1762.54 384.598C1765.88 386.699 1768.36 389.203 1769.97 392.111L1749.05 397.604C1748.35 396.419 1747.27 395.477 1745.82 394.777C1744.36 394.023 1742.78 393.484 1741.05 393.161C1739.33 392.784 1737.66 392.596 1736.04 392.596C1733.94 392.596 1732.27 392.865 1731.04 393.403C1729.8 393.888 1729.18 394.642 1729.18 395.665C1729.18 397.011 1730.26 397.873 1732.41 398.25C1734.56 398.627 1737.23 398.869 1740.41 398.977C1742.88 399.085 1745.5 399.246 1748.24 399.462C1750.99 399.623 1753.68 400 1756.32 400.593C1759.01 401.131 1761.44 402.02 1763.59 403.258C1765.8 404.443 1767.55 406.113 1768.84 408.267C1770.13 410.367 1770.78 413.087 1770.78 416.425C1770.78 420.626 1769.51 424.288 1766.98 427.411C1764.45 430.481 1760.87 432.878 1756.24 434.601C1751.61 436.27 1746.09 437.105 1739.68 437.105ZM1787.86 435.812V398.008H1771.21V379.267H1827.03V398.008H1810.47V435.812H1787.86ZM1849.39 435.812V413.437L1827.58 379.267H1853.18L1860.53 392.838L1868.37 379.267H1893.82L1872.01 413.437V435.812H1849.39ZM1896.15 435.812V379.267H1918.77V417.072H1943.65V435.812H1896.15ZM1947.66 435.812V379.267H2000.81V395.584H1970.28V400.593H1992.09V414.487H1970.28V419.495H2000.81V435.812H1947.66Z" fill="#FE6A0A"/>
</svg>
